G75*
G70*
%OFA0B0*%
%FSLAX24Y24*%
%IPPOS*%
%LPD*%
%AMOC8*
5,1,8,0,0,1.08239X$1,22.5*
%
%ADD10R,0.1059X0.3274*%
%ADD11R,0.1059X0.3274*%
%ADD12C,0.0520*%
%ADD13R,0.0740X0.0740*%
%ADD14C,0.0740*%
%ADD15OC8,0.0520*%
%ADD16R,0.0800X0.0800*%
%ADD17C,0.0800*%
%ADD18C,0.0160*%
%ADD19R,0.1000X0.1000*%
D10*
X004456Y012807D03*
D11*
X007466Y012792D03*
D12*
X007717Y011423D02*
X007197Y011423D01*
X007197Y010423D02*
X007717Y010423D01*
X007717Y009423D02*
X007197Y009423D01*
X007197Y008423D02*
X007717Y008423D01*
X007717Y007423D02*
X007197Y007423D01*
X007197Y006423D02*
X007717Y006423D01*
X007717Y005423D02*
X007197Y005423D01*
X004717Y005423D02*
X004197Y005423D01*
X004197Y006423D02*
X004717Y006423D01*
X004717Y007423D02*
X004197Y007423D01*
X004197Y008423D02*
X004717Y008423D01*
X004717Y009423D02*
X004197Y009423D01*
X004197Y010423D02*
X004717Y010423D01*
X004717Y011423D02*
X004197Y011423D01*
D13*
X002907Y005423D03*
X008907Y005423D03*
D14*
X009007Y006423D03*
X008907Y007423D03*
X009007Y008423D03*
X003007Y008423D03*
X002907Y007423D03*
X003007Y006423D03*
D15*
X000928Y001617D03*
X002783Y002790D03*
X002783Y003790D03*
X000928Y004617D03*
X009966Y002986D03*
X010966Y002986D03*
X011062Y004748D03*
X011062Y007748D03*
D16*
X005104Y003103D03*
D17*
X006552Y003103D03*
X008000Y003103D03*
D18*
X007376Y004117D01*
X006163Y005329D01*
X006163Y008423D01*
X007457Y008423D01*
X007457Y008423D01*
X007457Y009423D02*
X007457Y009425D01*
X009974Y009425D01*
X009974Y002973D01*
X009966Y002986D01*
X008907Y001844D02*
X008907Y005423D01*
X008907Y001844D02*
X003966Y001844D01*
X003966Y002606D01*
X002783Y003790D01*
D19*
X004451Y012627D03*
X004458Y013926D03*
X007466Y013919D03*
X007459Y012620D03*
M02*
