%
M48
M72
T01C0.0315
T02C0.0320
T03C0.0400
T04C0.0472
%
T01
X4451Y12627
X4458Y13926
X7466Y13919
X7459Y12620
T02
X932Y1098
X2411Y2895
X2411Y3895
X932Y5098
X4457Y5423
X4457Y6423
X4457Y7423
X4457Y8423
X4457Y9423
X4457Y10423
X4457Y11423
X7457Y11423
X7457Y10423
X7457Y9423
X7457Y8423
X7457Y7423
X7457Y6423
X7457Y5423
X9494Y2973
X10494Y2973
X11062Y4748
X11062Y7748
T03
X9007Y8423
X8907Y7423
X9007Y6423
X8907Y5423
X3007Y6423
X2907Y5423
X2907Y7423
X3007Y8423
T04
X4480Y3089
X5928Y3089
X7376Y3089
M30
