G75*
G70*
%OFA0B0*%
%FSLAX24Y24*%
%IPPOS*%
%LPD*%
%AMOC8*
5,1,8,0,0,1.08239X$1,22.5*
%
%ADD10C,0.0060*%
%ADD11C,0.0050*%
%ADD12C,0.0030*%
%ADD13C,0.0020*%
%ADD14C,0.0160*%
%ADD15C,0.0080*%
%ADD16C,0.0059*%
%ADD17C,0.0100*%
%ADD18C,0.0010*%
%ADD19R,0.0240X0.0340*%
D10*
X000582Y001848D02*
X001282Y001848D01*
X001299Y001850D01*
X001316Y001854D01*
X001332Y001861D01*
X001346Y001871D01*
X001359Y001884D01*
X001369Y001898D01*
X001376Y001914D01*
X001380Y001931D01*
X001382Y001948D01*
X001382Y002098D01*
X001332Y002148D01*
X001332Y004048D01*
X001382Y004098D01*
X001382Y004248D01*
X001380Y004265D01*
X001376Y004282D01*
X001369Y004298D01*
X001359Y004312D01*
X001346Y004325D01*
X001332Y004335D01*
X001316Y004342D01*
X001299Y004346D01*
X001282Y004348D01*
X000582Y004348D01*
X000565Y004346D01*
X000548Y004342D01*
X000532Y004335D01*
X000518Y004325D01*
X000505Y004312D01*
X000495Y004298D01*
X000488Y004282D01*
X000484Y004265D01*
X000482Y004248D01*
X000482Y004098D01*
X000532Y004048D01*
X000532Y002148D01*
X000482Y002098D01*
X000482Y001948D01*
X000484Y001931D01*
X000488Y001914D01*
X000495Y001898D01*
X000505Y001884D01*
X000518Y001871D01*
X000532Y001861D01*
X000548Y001854D01*
X000565Y001850D01*
X000582Y001848D01*
X001811Y003395D02*
X001813Y003440D01*
X001818Y003486D01*
X001826Y003530D01*
X001838Y003574D01*
X001854Y003617D01*
X001872Y003659D01*
X001894Y003699D01*
X001918Y003737D01*
X001945Y003773D01*
X001975Y003808D01*
X002008Y003839D01*
X002043Y003869D01*
X003011Y003395D02*
X003009Y003348D01*
X003003Y003300D01*
X002994Y003254D01*
X002981Y003208D01*
X002965Y003164D01*
X002944Y003120D01*
X002921Y003079D01*
X002895Y003040D01*
X002865Y003003D01*
X002832Y002968D01*
X002797Y002936D01*
X002760Y002907D01*
X003011Y003395D02*
X003009Y003441D01*
X003004Y003487D01*
X002995Y003533D01*
X002983Y003578D01*
X002967Y003621D01*
X002948Y003663D01*
X002925Y003704D01*
X002900Y003743D01*
X002872Y003779D01*
X002841Y003814D01*
X002807Y003846D01*
X002771Y003875D01*
X001811Y003395D02*
X001813Y003350D01*
X001818Y003304D01*
X001826Y003260D01*
X001838Y003216D01*
X001854Y003173D01*
X001872Y003131D01*
X001894Y003091D01*
X001918Y003053D01*
X001945Y003017D01*
X001975Y002982D01*
X002008Y002951D01*
X002043Y002921D01*
X004807Y004923D02*
X007107Y004923D01*
X007107Y011923D01*
X006357Y011923D01*
X006355Y011884D01*
X006349Y011845D01*
X006340Y011807D01*
X006327Y011770D01*
X006310Y011734D01*
X006290Y011701D01*
X006266Y011669D01*
X006240Y011640D01*
X006211Y011614D01*
X006179Y011590D01*
X006146Y011570D01*
X006110Y011553D01*
X006073Y011540D01*
X006035Y011531D01*
X005996Y011525D01*
X005957Y011523D01*
X005918Y011525D01*
X005879Y011531D01*
X005841Y011540D01*
X005804Y011553D01*
X005768Y011570D01*
X005735Y011590D01*
X005703Y011614D01*
X005674Y011640D01*
X005648Y011669D01*
X005624Y011701D01*
X005604Y011734D01*
X005587Y011770D01*
X005574Y011807D01*
X005565Y011845D01*
X005559Y011884D01*
X005557Y011923D01*
X004807Y011923D01*
X004807Y004923D01*
X005915Y006839D02*
X005701Y007053D01*
X005915Y007266D01*
X006342Y007266D01*
X006342Y007484D02*
X006342Y007804D01*
X006235Y007911D01*
X005808Y007911D01*
X005701Y007804D01*
X005701Y007484D01*
X006342Y007484D01*
X006021Y007266D02*
X006021Y006839D01*
X005915Y006839D02*
X006342Y006839D01*
X006235Y008128D02*
X006342Y008235D01*
X006342Y008449D01*
X006235Y008555D01*
X006021Y008555D01*
X005915Y008449D01*
X005915Y008342D01*
X006021Y008128D01*
X005701Y008128D01*
X005701Y008555D01*
X005808Y008773D02*
X005701Y008880D01*
X005701Y009093D01*
X005808Y009200D01*
X006235Y009200D01*
X006342Y009093D01*
X006342Y008880D01*
X006235Y008773D01*
X006021Y008880D02*
X006021Y009200D01*
X006021Y009417D02*
X005915Y009631D01*
X005915Y009738D01*
X006021Y009844D01*
X006235Y009844D01*
X006342Y009738D01*
X006342Y009524D01*
X006235Y009417D01*
X006021Y009417D02*
X005701Y009417D01*
X005701Y009844D01*
X006021Y008880D02*
X005915Y008773D01*
X005808Y008773D01*
X008258Y011434D02*
X008472Y011647D01*
X008899Y011647D01*
X008899Y011865D02*
X008899Y012078D01*
X008899Y011971D02*
X008258Y011971D01*
X008258Y011865D01*
X008472Y012294D02*
X008792Y012294D01*
X008899Y012401D01*
X008899Y012721D01*
X008472Y012721D01*
X008472Y012939D02*
X008472Y013046D01*
X008578Y013152D01*
X008472Y013259D01*
X008578Y013366D01*
X008899Y013366D01*
X008792Y013583D02*
X008578Y013583D01*
X008472Y013690D01*
X008472Y013904D01*
X008578Y014010D01*
X008685Y014010D01*
X008685Y013583D01*
X008792Y013583D02*
X008899Y013690D01*
X008899Y013904D01*
X008899Y014228D02*
X008899Y014442D01*
X008899Y014335D02*
X008258Y014335D01*
X008258Y014228D01*
X008578Y013152D02*
X008899Y013152D01*
X008899Y012939D02*
X008472Y012939D01*
X008578Y011647D02*
X008578Y011220D01*
X008472Y011220D02*
X008258Y011434D01*
X008472Y011220D02*
X008899Y011220D01*
X010612Y007398D02*
X010612Y007248D01*
X010662Y007198D01*
X010662Y005298D01*
X010612Y005248D01*
X010612Y005098D01*
X011462Y005298D02*
X011512Y005248D01*
X011512Y005098D01*
X011462Y005298D02*
X011462Y007198D01*
X011512Y007248D01*
X011512Y007398D01*
X008994Y002973D02*
X008996Y003036D01*
X009002Y003098D01*
X009012Y003160D01*
X009025Y003222D01*
X009043Y003282D01*
X009064Y003341D01*
X009089Y003399D01*
X009118Y003455D01*
X009150Y003509D01*
X009185Y003561D01*
X009223Y003610D01*
X009265Y003658D01*
X009309Y003702D01*
X009357Y003744D01*
X009406Y003782D01*
X009458Y003817D01*
X009512Y003849D01*
X009568Y003878D01*
X009626Y003903D01*
X009685Y003924D01*
X009745Y003942D01*
X009807Y003955D01*
X009869Y003965D01*
X009931Y003971D01*
X009994Y003973D01*
X010057Y003971D01*
X010119Y003965D01*
X010181Y003955D01*
X010243Y003942D01*
X010303Y003924D01*
X010362Y003903D01*
X010420Y003878D01*
X010476Y003849D01*
X010530Y003817D01*
X010582Y003782D01*
X010631Y003744D01*
X010679Y003702D01*
X010723Y003658D01*
X010765Y003610D01*
X010803Y003561D01*
X010838Y003509D01*
X010870Y003455D01*
X010899Y003399D01*
X010924Y003341D01*
X010945Y003282D01*
X010963Y003222D01*
X010976Y003160D01*
X010986Y003098D01*
X010992Y003036D01*
X010994Y002973D01*
X010992Y002910D01*
X010986Y002848D01*
X010976Y002786D01*
X010963Y002724D01*
X010945Y002664D01*
X010924Y002605D01*
X010899Y002547D01*
X010870Y002491D01*
X010838Y002437D01*
X010803Y002385D01*
X010765Y002336D01*
X010723Y002288D01*
X010679Y002244D01*
X010631Y002202D01*
X010582Y002164D01*
X010530Y002129D01*
X010476Y002097D01*
X010420Y002068D01*
X010362Y002043D01*
X010303Y002022D01*
X010243Y002004D01*
X010181Y001991D01*
X010119Y001981D01*
X010057Y001975D01*
X009994Y001973D01*
X009931Y001975D01*
X009869Y001981D01*
X009807Y001991D01*
X009745Y002004D01*
X009685Y002022D01*
X009626Y002043D01*
X009568Y002068D01*
X009512Y002097D01*
X009458Y002129D01*
X009406Y002164D01*
X009357Y002202D01*
X009309Y002244D01*
X009265Y002288D01*
X009223Y002336D01*
X009185Y002385D01*
X009150Y002437D01*
X009118Y002491D01*
X009089Y002547D01*
X009064Y002605D01*
X009043Y002664D01*
X009025Y002724D01*
X009012Y002786D01*
X009002Y002848D01*
X008996Y002910D01*
X008994Y002973D01*
D11*
X008609Y002663D02*
X008534Y002738D01*
X008384Y002738D01*
X008309Y002663D01*
X008149Y002663D02*
X008074Y002738D01*
X007849Y002738D01*
X007849Y002288D01*
X008074Y002288D01*
X008149Y002363D01*
X008149Y002663D01*
X008309Y002288D02*
X008609Y002588D01*
X008609Y002663D01*
X008609Y002288D02*
X008309Y002288D01*
X007688Y002288D02*
X007388Y002288D01*
X007388Y002738D01*
X007688Y002738D01*
X007538Y002513D02*
X007388Y002513D01*
X007228Y002288D02*
X006928Y002288D01*
X006928Y002738D01*
X010037Y005273D02*
X010037Y005499D01*
X010112Y005574D01*
X010262Y005574D01*
X010337Y005499D01*
X010337Y005273D01*
X010487Y005273D02*
X010037Y005273D01*
X010337Y005423D02*
X010487Y005574D01*
X010487Y005734D02*
X010187Y006034D01*
X010112Y006034D01*
X010037Y005959D01*
X010037Y005809D01*
X010112Y005734D01*
X010487Y005734D02*
X010487Y006034D01*
X003568Y011012D02*
X003568Y011215D01*
X003466Y011317D01*
X003568Y011518D02*
X002957Y011518D01*
X003059Y011317D02*
X002957Y011215D01*
X002957Y011012D01*
X003059Y010910D01*
X003466Y010910D01*
X003568Y011012D01*
X003262Y011518D02*
X003161Y011620D01*
X003161Y011823D01*
X003262Y011925D01*
X003568Y011925D01*
X003568Y012126D02*
X003161Y012126D01*
X003364Y012126D02*
X003161Y012329D01*
X003161Y012431D01*
X003262Y012632D02*
X003466Y012632D01*
X003568Y012734D01*
X003568Y012937D01*
X003466Y013039D01*
X003262Y013039D01*
X003161Y012937D01*
X003161Y012734D01*
X003262Y012632D01*
X003161Y013240D02*
X003161Y013341D01*
X003262Y013443D01*
X003161Y013545D01*
X003262Y013647D01*
X003568Y013647D01*
X003568Y013443D02*
X003262Y013443D01*
X003161Y013240D02*
X003568Y013240D01*
X003466Y013847D02*
X003262Y013847D01*
X003161Y013949D01*
X003161Y014153D01*
X003262Y014254D01*
X003364Y014254D01*
X003364Y013847D01*
X003466Y013847D02*
X003568Y013949D01*
X003568Y014153D01*
X003568Y014455D02*
X003568Y014659D01*
X003568Y014557D02*
X002957Y014557D01*
X002957Y014455D01*
X002007Y004163D02*
X002007Y003863D01*
X002007Y004013D02*
X001557Y004013D01*
X001707Y003863D01*
X001632Y003703D02*
X001782Y003703D01*
X001857Y003628D01*
X001857Y003403D01*
X001857Y003553D02*
X002007Y003703D01*
X002007Y003403D02*
X001557Y003403D01*
X001557Y003628D01*
X001632Y003703D01*
X002585Y002360D02*
X003036Y002360D01*
X003036Y002210D02*
X003036Y002510D01*
X002736Y002210D02*
X002585Y002360D01*
X002661Y002050D02*
X002585Y001975D01*
X002585Y001749D01*
X003036Y001749D01*
X003036Y001975D01*
X002961Y002050D01*
X002661Y002050D01*
X002585Y001589D02*
X002585Y001289D01*
X003036Y001289D01*
X003036Y001589D01*
X002811Y001439D02*
X002811Y001289D01*
X003036Y001129D02*
X003036Y000829D01*
X002585Y000829D01*
D12*
X002549Y001843D02*
X002501Y001892D01*
X002501Y002085D01*
X002496Y002115D02*
X002544Y002163D01*
X002544Y002405D01*
X002399Y002405D01*
X002351Y002357D01*
X002351Y002260D01*
X002399Y002211D01*
X002544Y002211D01*
X002645Y002211D02*
X002645Y002405D01*
X002645Y002308D02*
X002742Y002405D01*
X002791Y002405D01*
X002939Y002405D02*
X003036Y002405D01*
X003084Y002357D01*
X003084Y002211D01*
X002939Y002211D01*
X002891Y002260D01*
X002939Y002308D01*
X003084Y002308D01*
X003186Y002211D02*
X003186Y002405D01*
X003234Y002405D01*
X003282Y002357D01*
X003331Y002405D01*
X003379Y002357D01*
X003379Y002211D01*
X003282Y002211D02*
X003282Y002357D01*
X003137Y002037D02*
X002992Y002037D01*
X002943Y001989D01*
X002992Y001940D01*
X003088Y001940D01*
X003137Y001892D01*
X003088Y001843D01*
X002943Y001843D01*
X002842Y001843D02*
X002842Y002037D01*
X002649Y002037D02*
X002649Y001892D01*
X002697Y001843D01*
X002842Y001843D01*
X002549Y002037D02*
X002452Y002037D01*
X002448Y002115D02*
X002496Y002115D01*
X002351Y001989D02*
X002351Y001843D01*
X002206Y001843D01*
X002157Y001892D01*
X002206Y001940D01*
X002351Y001940D01*
X002351Y001989D02*
X002303Y002037D01*
X002206Y002037D01*
X002058Y002037D02*
X001961Y002037D01*
X002009Y002085D02*
X002009Y001892D01*
X002058Y001843D01*
X001860Y001892D02*
X001812Y001843D01*
X001715Y001843D01*
X001666Y001892D01*
X001715Y001989D02*
X001812Y001989D01*
X001860Y001940D01*
X001860Y001892D01*
X001715Y001989D02*
X001666Y002037D01*
X001666Y002085D01*
X001715Y002134D01*
X001812Y002134D01*
X001860Y002085D01*
X001811Y002211D02*
X001811Y002405D01*
X001907Y002405D02*
X001811Y002308D01*
X001709Y002357D02*
X001709Y002453D01*
X001661Y002502D01*
X001516Y002502D01*
X001516Y002211D01*
X001516Y002308D02*
X001661Y002308D01*
X001709Y002357D01*
X001907Y002405D02*
X001956Y002405D01*
X002056Y002357D02*
X002056Y002260D01*
X002105Y002211D01*
X002201Y002211D01*
X002250Y002260D01*
X002250Y002357D01*
X002201Y002405D01*
X002105Y002405D01*
X002056Y002357D01*
X003959Y001368D02*
X003959Y001174D01*
X004007Y001126D01*
X004104Y001126D01*
X004152Y001174D01*
X004152Y001271D01*
X004056Y001271D01*
X004152Y001368D02*
X004104Y001416D01*
X004007Y001416D01*
X003959Y001368D01*
X004254Y001416D02*
X004254Y001126D01*
X004447Y001126D02*
X004254Y001416D01*
X004447Y001416D02*
X004447Y001126D01*
X004548Y001126D02*
X004693Y001126D01*
X004742Y001174D01*
X004742Y001368D01*
X004693Y001416D01*
X004548Y001416D01*
X004548Y001126D01*
X005421Y001179D02*
X005469Y001131D01*
X005566Y001131D01*
X005614Y001179D01*
X005421Y001179D02*
X005421Y001372D01*
X005469Y001421D01*
X005566Y001421D01*
X005614Y001372D01*
X005715Y001421D02*
X005909Y001421D01*
X005812Y001421D02*
X005812Y001131D01*
X006010Y001131D02*
X006010Y001421D01*
X006155Y001421D01*
X006203Y001372D01*
X006203Y001276D01*
X006155Y001227D01*
X006010Y001227D01*
X006107Y001227D02*
X006203Y001131D01*
X006305Y001131D02*
X006498Y001131D01*
X006305Y001131D02*
X006305Y001421D01*
X007154Y001276D02*
X007347Y001276D01*
X007449Y001276D02*
X007449Y001421D01*
X007642Y001421D01*
X007594Y001324D02*
X007642Y001276D01*
X007642Y001179D01*
X007594Y001131D01*
X007497Y001131D01*
X007449Y001179D01*
X007449Y001276D02*
X007545Y001324D01*
X007594Y001324D01*
X007251Y001372D02*
X007251Y001179D01*
X009252Y001149D02*
X009252Y001343D01*
X009349Y001439D01*
X009445Y001343D01*
X009445Y001149D01*
X009547Y001149D02*
X009740Y001149D01*
X009841Y001149D02*
X009841Y001343D01*
X009938Y001439D01*
X010035Y001343D01*
X010035Y001149D01*
X010136Y001149D02*
X010136Y001439D01*
X010281Y001439D01*
X010329Y001391D01*
X010329Y001294D01*
X010281Y001246D01*
X010136Y001246D01*
X010233Y001246D02*
X010329Y001149D01*
X010431Y001149D02*
X010431Y001439D01*
X010527Y001343D01*
X010624Y001439D01*
X010624Y001149D01*
X010035Y001294D02*
X009841Y001294D01*
X009547Y001439D02*
X009547Y001149D01*
X009445Y001294D02*
X009252Y001294D01*
X009982Y008324D02*
X009933Y008373D01*
X009982Y008324D02*
X010078Y008324D01*
X010127Y008373D01*
X010127Y008469D01*
X010078Y008518D01*
X010030Y008518D01*
X009933Y008469D01*
X009933Y008615D01*
X010127Y008615D01*
X009832Y008469D02*
X009639Y008469D01*
X009735Y008373D02*
X009735Y008566D01*
X010850Y009170D02*
X010850Y009315D01*
X010898Y009363D01*
X011092Y009363D01*
X011140Y009315D01*
X011140Y009170D01*
X010850Y009170D01*
X010995Y009464D02*
X010947Y009513D01*
X010947Y009609D01*
X010995Y009658D01*
X011043Y009658D01*
X011043Y009464D01*
X010995Y009464D02*
X011092Y009464D01*
X011140Y009513D01*
X011140Y009609D01*
X011140Y009759D02*
X011140Y009904D01*
X011092Y009953D01*
X011043Y009904D01*
X011043Y009807D01*
X010995Y009759D01*
X010947Y009807D01*
X010947Y009953D01*
X010947Y010054D02*
X010947Y010102D01*
X011140Y010102D01*
X011140Y010054D02*
X011140Y010150D01*
X011092Y010250D02*
X011140Y010298D01*
X011140Y010444D01*
X011188Y010444D02*
X011237Y010395D01*
X011237Y010347D01*
X011188Y010444D02*
X010947Y010444D01*
X010947Y010298D01*
X010995Y010250D01*
X011092Y010250D01*
X010850Y010102D02*
X010801Y010102D01*
X010947Y010545D02*
X010947Y010690D01*
X010995Y010738D01*
X011140Y010738D01*
X011140Y010545D02*
X010947Y010545D01*
X010850Y011134D02*
X010850Y011328D01*
X010850Y011231D02*
X011140Y011231D01*
X011092Y011429D02*
X010995Y011429D01*
X010947Y011477D01*
X010947Y011574D01*
X010995Y011622D01*
X011043Y011622D01*
X011043Y011429D01*
X011092Y011429D02*
X011140Y011477D01*
X011140Y011574D01*
X011092Y011723D02*
X010995Y011723D01*
X010947Y011772D01*
X010947Y011917D01*
X010995Y012018D02*
X010947Y012066D01*
X010947Y012163D01*
X010995Y012211D01*
X011140Y012211D01*
X011140Y012018D02*
X010850Y012018D01*
X011140Y011917D02*
X011140Y011772D01*
X011092Y011723D01*
X011140Y012607D02*
X011140Y012704D01*
X011140Y012656D02*
X010850Y012656D01*
X010850Y012704D02*
X010850Y012607D01*
X010947Y012804D02*
X010947Y012949D01*
X010995Y012997D01*
X011140Y012997D01*
X011092Y013098D02*
X010995Y013098D01*
X010947Y013147D01*
X010947Y013292D01*
X010850Y013292D02*
X011140Y013292D01*
X011140Y013147D01*
X011092Y013098D01*
X011092Y013393D02*
X010947Y013393D01*
X011092Y013393D02*
X011140Y013441D01*
X011140Y013587D01*
X010947Y013587D01*
X010995Y013688D02*
X010947Y013736D01*
X010947Y013881D01*
X010947Y013982D02*
X010947Y014079D01*
X010898Y014031D02*
X011092Y014031D01*
X011140Y014079D01*
X011140Y014179D02*
X010947Y014179D01*
X011043Y014179D02*
X010947Y014276D01*
X010947Y014324D01*
X010947Y014424D02*
X010947Y014473D01*
X011140Y014473D01*
X011140Y014521D02*
X011140Y014424D01*
X011092Y014621D02*
X010995Y014621D01*
X010947Y014669D01*
X010947Y014766D01*
X010995Y014814D01*
X011043Y014814D01*
X011043Y014621D01*
X011092Y014621D02*
X011140Y014669D01*
X011140Y014766D01*
X011140Y014915D02*
X011140Y015061D01*
X011092Y015109D01*
X011043Y015061D01*
X011043Y014964D01*
X010995Y014915D01*
X010947Y014964D01*
X010947Y015109D01*
X010850Y014473D02*
X010801Y014473D01*
X011092Y013881D02*
X011043Y013833D01*
X011043Y013736D01*
X010995Y013688D01*
X011140Y013688D02*
X011140Y013833D01*
X011092Y013881D01*
X011140Y012804D02*
X010947Y012804D01*
X007673Y015000D02*
X007625Y014952D01*
X007528Y014952D01*
X007480Y015000D01*
X007673Y015194D01*
X007673Y015000D01*
X007673Y015194D02*
X007625Y015242D01*
X007528Y015242D01*
X007480Y015194D01*
X007480Y015000D01*
X007381Y015000D02*
X007381Y014952D01*
X007333Y014952D01*
X007333Y015000D01*
X007381Y015000D01*
X007231Y015000D02*
X007231Y015049D01*
X007183Y015097D01*
X007135Y015097D01*
X007183Y015097D02*
X007231Y015145D01*
X007231Y015194D01*
X007183Y015242D01*
X007086Y015242D01*
X007038Y015194D01*
X007038Y015000D02*
X007086Y014952D01*
X007183Y014952D01*
X007231Y015000D01*
X006642Y014952D02*
X006642Y015145D01*
X006545Y015242D01*
X006449Y015145D01*
X006449Y014952D01*
X006347Y015000D02*
X006347Y015049D01*
X006299Y015097D01*
X006202Y015097D01*
X006154Y015145D01*
X006154Y015194D01*
X006202Y015242D01*
X006299Y015242D01*
X006347Y015194D01*
X006449Y015097D02*
X006642Y015097D01*
X006347Y015000D02*
X006299Y014952D01*
X006202Y014952D01*
X006154Y015000D01*
X006053Y015097D02*
X005859Y015097D01*
X005758Y015194D02*
X005758Y015242D01*
X005758Y015194D02*
X005661Y015097D01*
X005661Y014952D01*
X005661Y015097D02*
X005565Y015194D01*
X005565Y015242D01*
X005464Y015194D02*
X005464Y015145D01*
X005415Y015097D01*
X005270Y015097D01*
X005270Y014952D02*
X005415Y014952D01*
X005464Y015000D01*
X005464Y015049D01*
X005415Y015097D01*
X005464Y015194D02*
X005415Y015242D01*
X005270Y015242D01*
X005270Y014952D01*
X004874Y015000D02*
X004826Y014952D01*
X004729Y014952D01*
X004681Y015000D01*
X004681Y015194D01*
X004729Y015242D01*
X004826Y015242D01*
X004874Y015194D01*
X004580Y015194D02*
X004531Y015242D01*
X004434Y015242D01*
X004386Y015194D01*
X004386Y015000D01*
X004434Y014952D01*
X004531Y014952D01*
X004580Y015000D01*
X001586Y014643D02*
X001586Y014546D01*
X001538Y014498D01*
X001441Y014594D02*
X001441Y014643D01*
X001490Y014691D01*
X001538Y014691D01*
X001586Y014643D01*
X001441Y014643D02*
X001393Y014691D01*
X001344Y014691D01*
X001296Y014643D01*
X001296Y014546D01*
X001344Y014498D01*
X001030Y014495D02*
X000982Y014543D01*
X000885Y014543D01*
X000837Y014495D01*
X000837Y014398D01*
X000885Y014350D01*
X000982Y014350D01*
X001030Y014398D01*
X001030Y014495D01*
X000982Y014645D02*
X000934Y014693D01*
X000934Y014838D01*
X000885Y014838D02*
X001030Y014838D01*
X001030Y014693D01*
X000982Y014645D01*
X000837Y014693D02*
X000837Y014790D01*
X000885Y014838D01*
X000837Y014939D02*
X001030Y014939D01*
X000934Y014939D02*
X000837Y015036D01*
X000837Y015084D01*
X000885Y015185D02*
X000837Y015233D01*
X000837Y015378D01*
X000740Y015378D02*
X001030Y015378D01*
X001030Y015233D01*
X000982Y015185D01*
X000885Y015185D01*
X000837Y014249D02*
X000885Y014200D01*
X000885Y014055D01*
X001030Y014055D02*
X000740Y014055D01*
X000740Y014200D01*
X000788Y014249D01*
X000837Y014249D01*
X000885Y014200D02*
X000934Y014249D01*
X000982Y014249D01*
X001030Y014200D01*
X001030Y014055D01*
X001393Y014102D02*
X001586Y014005D01*
X001393Y013908D01*
X001441Y013807D02*
X001490Y013807D01*
X001490Y013614D01*
X001538Y013614D02*
X001441Y013614D01*
X001393Y013662D01*
X001393Y013759D01*
X001441Y013807D01*
X001586Y013759D02*
X001586Y013662D01*
X001538Y013614D01*
X001586Y013513D02*
X001490Y013416D01*
X001490Y013464D02*
X001490Y013319D01*
X001586Y013319D02*
X001296Y013319D01*
X001296Y013464D01*
X001344Y013513D01*
X001441Y013513D01*
X001490Y013464D01*
X001030Y013463D02*
X001030Y013318D01*
X000982Y013270D01*
X000837Y013270D01*
X000885Y013168D02*
X000837Y013120D01*
X000837Y013023D01*
X000885Y012975D01*
X000982Y012975D01*
X001030Y013023D01*
X001030Y013120D01*
X000982Y013168D01*
X000885Y013168D01*
X000837Y013463D02*
X001030Y013463D01*
X000982Y013613D02*
X001030Y013661D01*
X000982Y013613D02*
X000788Y013613D01*
X000837Y013661D02*
X000837Y013564D01*
X000837Y012875D02*
X000934Y012729D01*
X001030Y012875D01*
X001030Y012729D02*
X000740Y012729D01*
X000885Y012628D02*
X000837Y012580D01*
X000837Y012483D01*
X000934Y012483D02*
X000982Y012435D01*
X001030Y012483D01*
X001030Y012628D01*
X000885Y012628D01*
X000934Y012628D02*
X000934Y012483D01*
X000934Y012334D02*
X000934Y012140D01*
X000982Y012140D02*
X000885Y012140D01*
X000837Y012188D01*
X000837Y012285D01*
X000885Y012334D01*
X000934Y012334D01*
X001030Y012285D02*
X001030Y012188D01*
X000982Y012140D01*
X000837Y012040D02*
X000837Y011991D01*
X000934Y011895D01*
X001030Y011895D02*
X000837Y011895D01*
X000837Y011793D02*
X000885Y011745D01*
X000885Y011600D01*
X001030Y011600D02*
X000740Y011600D01*
X000740Y011745D01*
X000788Y011793D01*
X000837Y011793D01*
X000885Y011745D02*
X000934Y011793D01*
X000982Y011793D01*
X001030Y011745D01*
X001030Y011600D01*
X000934Y011204D02*
X000934Y011011D01*
X000982Y011011D02*
X000885Y011011D01*
X000837Y011059D01*
X000837Y011156D01*
X000885Y011204D01*
X000934Y011204D01*
X001030Y011156D02*
X001030Y011059D01*
X000982Y011011D01*
X001030Y010911D02*
X001030Y010814D01*
X001030Y010863D02*
X000740Y010863D01*
X000740Y010814D01*
X000885Y010713D02*
X000837Y010665D01*
X000837Y010520D01*
X001127Y010520D01*
X001030Y010520D02*
X001030Y010665D01*
X000982Y010713D01*
X000885Y010713D01*
X000837Y010418D02*
X001030Y010418D01*
X001030Y010273D01*
X000982Y010225D01*
X000837Y010225D01*
X000885Y010124D02*
X000837Y010075D01*
X000837Y009979D01*
X000885Y009930D01*
X000982Y009930D01*
X001030Y009979D01*
X001030Y010075D01*
X000982Y010124D01*
X000885Y010124D01*
X000837Y009829D02*
X000837Y009684D01*
X000885Y009636D01*
X000982Y009636D01*
X001030Y009684D01*
X001030Y009829D01*
X000982Y009534D02*
X000885Y009534D01*
X000837Y009486D01*
X000837Y009389D01*
X000885Y009341D01*
X000982Y009341D01*
X001030Y009389D01*
X001030Y009486D01*
X000982Y009534D01*
X001030Y009240D02*
X000885Y009240D01*
X000837Y009191D01*
X000885Y009143D01*
X001030Y009143D01*
X001030Y009046D02*
X000837Y009046D01*
X000837Y009095D01*
X000885Y009143D01*
X000837Y008946D02*
X000837Y008897D01*
X000934Y008801D01*
X001030Y008801D02*
X000837Y008801D01*
X000885Y008700D02*
X000837Y008651D01*
X000837Y008554D01*
X000885Y008506D01*
X000982Y008506D01*
X001030Y008554D01*
X001030Y008651D01*
X000934Y008700D02*
X000934Y008506D01*
X000885Y008405D02*
X001030Y008405D01*
X000885Y008405D02*
X000837Y008357D01*
X000837Y008260D01*
X000885Y008211D01*
X000740Y008211D02*
X001030Y008211D01*
X001030Y008013D02*
X000740Y008013D01*
X000740Y007917D02*
X000740Y008110D01*
X000740Y007521D02*
X000740Y007327D01*
X000885Y007327D01*
X000837Y007424D01*
X000837Y007473D01*
X000885Y007521D01*
X000982Y007521D01*
X001030Y007473D01*
X001030Y007376D01*
X000982Y007327D01*
X000982Y007226D02*
X000788Y007226D01*
X000740Y007178D01*
X000740Y007081D01*
X000788Y007033D01*
X000837Y007033D01*
X000885Y007081D01*
X000885Y007226D01*
X000982Y007226D02*
X001030Y007178D01*
X001030Y007081D01*
X000982Y007033D01*
X000982Y006932D02*
X001030Y006883D01*
X001030Y006787D01*
X000982Y006738D01*
X000885Y006738D02*
X000837Y006835D01*
X000837Y006883D01*
X000885Y006932D01*
X000982Y006932D01*
X000885Y006738D02*
X000740Y006738D01*
X000740Y006932D01*
X000837Y006637D02*
X000740Y006540D01*
X000837Y006443D01*
X001030Y006443D01*
X000982Y006342D02*
X001030Y006294D01*
X001030Y006149D01*
X000740Y006149D01*
X000740Y006294D01*
X000788Y006342D01*
X000982Y006342D01*
X000885Y006443D02*
X000885Y006637D01*
X000837Y006637D02*
X001030Y006637D01*
X001030Y006048D02*
X000837Y006048D01*
X000740Y005951D01*
X000837Y005854D01*
X001030Y005854D01*
X000885Y005854D02*
X000885Y006048D01*
X001484Y005490D02*
X001484Y005297D01*
X001532Y005248D01*
X001629Y005248D01*
X001677Y005297D01*
X001677Y005393D01*
X001580Y005393D01*
X001484Y005490D02*
X001532Y005538D01*
X001629Y005538D01*
X001677Y005490D01*
X001778Y005538D02*
X001972Y005248D01*
X001972Y005538D01*
X002073Y005538D02*
X002218Y005538D01*
X002267Y005490D01*
X002267Y005297D01*
X002218Y005248D01*
X002073Y005248D01*
X002073Y005538D01*
X001778Y005538D02*
X001778Y005248D01*
X000934Y008700D02*
X000885Y008700D01*
D13*
X009573Y007579D02*
X009573Y007506D01*
X009610Y007469D01*
X009756Y007469D01*
X009610Y007616D01*
X009756Y007616D01*
X009793Y007579D01*
X009793Y007506D01*
X009756Y007469D01*
X009793Y007395D02*
X009793Y007248D01*
X009793Y007321D02*
X009573Y007321D01*
X009646Y007248D01*
X009573Y007579D02*
X009610Y007616D01*
X009979Y007574D02*
X010200Y007427D01*
X010126Y007353D02*
X010200Y007280D01*
X010126Y007206D01*
X009979Y007206D01*
X010053Y007096D02*
X010090Y007132D01*
X010200Y007132D01*
X010200Y007059D02*
X010090Y007059D01*
X010053Y007096D01*
X010090Y007059D02*
X010053Y007022D01*
X010053Y006985D01*
X010200Y006985D01*
X010126Y007353D02*
X009979Y007353D01*
X010016Y007648D02*
X009979Y007685D01*
X009979Y007722D01*
X010016Y007759D01*
X010053Y007759D01*
X010090Y007722D01*
X010090Y007685D01*
X010053Y007648D01*
X010016Y007648D01*
X010016Y007833D02*
X010163Y007833D01*
X010200Y007869D01*
X010200Y007943D01*
X010163Y007979D01*
X010016Y007979D02*
X009979Y007943D01*
X009979Y007869D01*
X010016Y007833D01*
D14*
X000185Y008320D02*
X000185Y001641D01*
X000187Y001567D01*
X000192Y001493D01*
X000202Y001420D01*
X000215Y001347D01*
X000232Y001275D01*
X000252Y001204D01*
X000276Y001134D01*
X000303Y001065D01*
X000334Y000998D01*
X000369Y000932D01*
X000406Y000868D01*
X000447Y000806D01*
X000491Y000747D01*
X000537Y000689D01*
X000587Y000634D01*
X000639Y000582D01*
X000694Y000532D01*
X000752Y000486D01*
X000811Y000442D01*
X000873Y000401D01*
X000937Y000364D01*
X001003Y000329D01*
X001070Y000298D01*
X001139Y000271D01*
X001209Y000247D01*
X001280Y000227D01*
X001352Y000210D01*
X001425Y000197D01*
X001498Y000187D01*
X001572Y000182D01*
X001646Y000180D01*
X010820Y000180D01*
X010897Y000182D01*
X010975Y000188D01*
X011051Y000198D01*
X011128Y000211D01*
X011203Y000229D01*
X011277Y000250D01*
X011351Y000275D01*
X011423Y000304D01*
X011493Y000336D01*
X011562Y000372D01*
X011628Y000411D01*
X011693Y000454D01*
X011755Y000500D01*
X011815Y000549D01*
X011873Y000601D01*
X011927Y000655D01*
X011979Y000713D01*
X012028Y000773D01*
X012074Y000835D01*
X012117Y000900D01*
X012156Y000966D01*
X012192Y001035D01*
X012224Y001105D01*
X012253Y001177D01*
X012278Y001251D01*
X012299Y001325D01*
X012317Y001400D01*
X012330Y001477D01*
X012340Y001553D01*
X012346Y001631D01*
X012348Y001708D01*
X012347Y001708D02*
X012347Y015584D01*
X012348Y015584D02*
X012346Y015655D01*
X012340Y015726D01*
X012331Y015796D01*
X012317Y015866D01*
X012300Y015935D01*
X012279Y016003D01*
X012255Y016070D01*
X012227Y016135D01*
X012195Y016199D01*
X012160Y016261D01*
X012122Y016321D01*
X012080Y016379D01*
X012036Y016434D01*
X011988Y016487D01*
X011938Y016537D01*
X011885Y016585D01*
X011830Y016629D01*
X011772Y016671D01*
X011712Y016709D01*
X011650Y016744D01*
X011586Y016776D01*
X011521Y016804D01*
X011454Y016828D01*
X011386Y016849D01*
X011317Y016866D01*
X011247Y016880D01*
X011177Y016889D01*
X011106Y016895D01*
X011035Y016897D01*
X006035Y016897D01*
X006091Y016905D02*
X001760Y016905D01*
X001760Y016904D02*
X001682Y016902D01*
X001605Y016896D01*
X001528Y016887D01*
X001452Y016874D01*
X001376Y016857D01*
X001301Y016836D01*
X001228Y016812D01*
X001155Y016784D01*
X001084Y016752D01*
X001015Y016717D01*
X000948Y016679D01*
X000882Y016638D01*
X000819Y016593D01*
X000758Y016545D01*
X000699Y016495D01*
X000643Y016441D01*
X000589Y016385D01*
X000539Y016326D01*
X000491Y016265D01*
X000446Y016202D01*
X000405Y016136D01*
X000367Y016069D01*
X000332Y016000D01*
X000300Y015929D01*
X000272Y015856D01*
X000248Y015783D01*
X000227Y015708D01*
X000210Y015632D01*
X000197Y015556D01*
X000188Y015479D01*
X000182Y015402D01*
X000180Y015324D01*
X000180Y008337D01*
D15*
X002457Y008173D02*
X002707Y007923D01*
X002457Y007673D01*
X002457Y007173D01*
X002707Y006923D01*
X002457Y006673D01*
X002457Y006173D01*
X002707Y005923D01*
X002457Y005673D01*
X002457Y005173D01*
X002707Y004923D01*
X003207Y004923D01*
X003457Y005173D01*
X003457Y005673D01*
X003207Y005923D01*
X003457Y006173D01*
X003457Y006673D01*
X003207Y006923D01*
X003457Y007173D01*
X003457Y007673D01*
X003207Y007923D01*
X003457Y008173D01*
X003457Y008673D01*
X003207Y008923D01*
X002707Y008923D01*
X002457Y008673D01*
X002457Y008173D01*
X003644Y004427D02*
X003644Y001986D01*
X008211Y001986D01*
X008211Y001671D01*
X003644Y001671D01*
X003644Y001986D01*
X003644Y004427D02*
X008211Y004427D01*
X008211Y001986D01*
X008994Y002223D02*
X008994Y003723D01*
X009207Y004923D02*
X008707Y004923D01*
X008457Y005173D01*
X008457Y005673D01*
X008707Y005923D01*
X008457Y006173D01*
X008457Y006673D01*
X008707Y006923D01*
X008457Y007173D01*
X008457Y007673D01*
X008707Y007923D01*
X008457Y008173D01*
X008457Y008673D01*
X008707Y008923D01*
X009207Y008923D01*
X009457Y008673D01*
X009457Y008173D01*
X009207Y007923D01*
X009457Y007673D01*
X009457Y007173D01*
X009207Y006923D01*
X009457Y006673D01*
X009457Y006173D01*
X009207Y005923D01*
X009457Y005673D01*
X009457Y005173D01*
X009207Y004923D01*
D16*
X006395Y015435D02*
X006497Y015537D01*
X006376Y015685D01*
X006407Y015745D01*
X006427Y015809D01*
X006618Y015828D01*
X006618Y015972D01*
X006427Y015992D01*
X006407Y016056D01*
X006376Y016116D01*
X006497Y016264D01*
X006395Y016366D01*
X006247Y016245D01*
X006187Y016276D01*
X006123Y016296D01*
X006103Y016487D01*
X005959Y016487D01*
X005940Y016296D01*
X005876Y016276D01*
X005816Y016245D01*
X005668Y016366D01*
X005566Y016264D01*
X005687Y016116D01*
X005656Y016056D01*
X005636Y015992D01*
X005445Y015972D01*
X005445Y015828D01*
X005636Y015809D01*
X005656Y015745D01*
X005687Y015685D01*
X005566Y015537D01*
X005668Y015435D01*
X005816Y015556D01*
X005876Y015525D01*
X005961Y015730D01*
X005923Y015751D01*
X005891Y015781D01*
X005867Y015817D01*
X005852Y015857D01*
X005847Y015900D01*
X005852Y015944D01*
X005868Y015986D01*
X005893Y016022D01*
X005926Y016052D01*
X005965Y016072D01*
X006007Y016083D01*
X006051Y016084D01*
X006094Y016074D01*
X006134Y016054D01*
X006167Y016025D01*
X006193Y015989D01*
X006210Y015948D01*
X006216Y015904D01*
X006212Y015860D01*
X006197Y015819D01*
X006173Y015782D01*
X006141Y015752D01*
X006102Y015730D01*
X006187Y015525D01*
X006247Y015556D01*
X006395Y015435D01*
X006441Y015482D02*
X006338Y015482D01*
X006267Y015539D02*
X006495Y015539D01*
X006448Y015597D02*
X006157Y015597D01*
X006133Y015654D02*
X006401Y015654D01*
X006389Y015712D02*
X006110Y015712D01*
X006159Y015769D02*
X006414Y015769D01*
X006601Y015827D02*
X006200Y015827D01*
X006214Y015884D02*
X006618Y015884D01*
X006618Y015942D02*
X006211Y015942D01*
X006186Y016000D02*
X006425Y016000D01*
X006406Y016057D02*
X006128Y016057D01*
X005936Y016057D02*
X005657Y016057D01*
X005638Y016000D02*
X005877Y016000D01*
X005852Y015942D02*
X005445Y015942D01*
X005445Y015884D02*
X005849Y015884D01*
X005863Y015827D02*
X005461Y015827D01*
X005615Y015597D02*
X005906Y015597D01*
X005929Y015654D02*
X005662Y015654D01*
X005673Y015712D02*
X005953Y015712D01*
X005903Y015769D02*
X005649Y015769D01*
X005568Y015539D02*
X005795Y015539D01*
X005849Y015539D02*
X005882Y015539D01*
X005725Y015482D02*
X005621Y015482D01*
X005687Y016115D02*
X006376Y016115D01*
X006422Y016172D02*
X005641Y016172D01*
X005594Y016230D02*
X006469Y016230D01*
X006474Y016287D02*
X006299Y016287D01*
X006369Y016345D02*
X006416Y016345D01*
X006150Y016287D02*
X005913Y016287D01*
X005945Y016345D02*
X006118Y016345D01*
X006112Y016402D02*
X005951Y016402D01*
X005957Y016460D02*
X006106Y016460D01*
X005764Y016287D02*
X005589Y016287D01*
X005647Y016345D02*
X005694Y016345D01*
X006181Y015539D02*
X006213Y015539D01*
D17*
X002014Y004090D02*
X001966Y004060D01*
X001921Y004027D01*
X001878Y003991D01*
X001837Y003953D01*
X001800Y003911D01*
X001765Y003867D01*
X001734Y003821D01*
X001705Y003772D01*
X001681Y003722D01*
X001660Y003670D01*
X001642Y003616D01*
X001629Y003562D01*
X001619Y003507D01*
X001613Y003451D01*
X001611Y003395D01*
X002787Y004101D02*
X002834Y004074D01*
X002879Y004044D01*
X002922Y004011D01*
X002962Y003975D01*
X003000Y003936D01*
X003035Y003895D01*
X003068Y003852D01*
X003097Y003807D01*
X003123Y003759D01*
X003146Y003710D01*
X003166Y003660D01*
X003182Y003609D01*
X003195Y003556D01*
X003204Y003503D01*
X003209Y003449D01*
X003211Y003395D01*
X001894Y002784D02*
X001855Y002820D01*
X001817Y002859D01*
X001783Y002899D01*
X001751Y002942D01*
X001723Y002987D01*
X001697Y003034D01*
X001674Y003083D01*
X001655Y003133D01*
X001639Y003184D01*
X001627Y003236D01*
X001618Y003288D01*
X001613Y003342D01*
X001611Y003395D01*
X002923Y002780D02*
X002963Y002816D01*
X003001Y002855D01*
X003036Y002896D01*
X003068Y002939D01*
X003098Y002984D01*
X003124Y003031D01*
X003146Y003080D01*
X003166Y003131D01*
X003182Y003182D01*
X003195Y003234D01*
X003204Y003288D01*
X003209Y003341D01*
X003211Y003395D01*
X008994Y003723D02*
X009037Y003777D01*
X009083Y003829D01*
X009132Y003878D01*
X009184Y003925D01*
X009238Y003968D01*
X009294Y004009D01*
X009353Y004046D01*
X009413Y004080D01*
X009476Y004110D01*
X009539Y004137D01*
X009605Y004161D01*
X009671Y004181D01*
X009739Y004197D01*
X009807Y004209D01*
X009876Y004217D01*
X009945Y004222D01*
X010015Y004223D01*
X010084Y004220D01*
X010153Y004213D01*
X010221Y004202D01*
X010289Y004188D01*
X010356Y004169D01*
X010422Y004147D01*
X010487Y004122D01*
X010550Y004093D01*
X010611Y004060D01*
X010670Y004024D01*
X010727Y003985D01*
X010783Y003943D01*
X010835Y003898D01*
X010885Y003850D01*
X010932Y003799D01*
X010977Y003745D01*
X011018Y003690D01*
X011056Y003632D01*
X011091Y003572D01*
X011123Y003510D01*
X011151Y003447D01*
X011175Y003382D01*
X011196Y003316D01*
X011213Y003248D01*
X011227Y003180D01*
X011236Y003111D01*
X011242Y003042D01*
X011244Y002973D01*
X011242Y002904D01*
X011236Y002835D01*
X011227Y002766D01*
X011213Y002698D01*
X011196Y002630D01*
X011175Y002564D01*
X011151Y002499D01*
X011123Y002436D01*
X011091Y002374D01*
X011056Y002314D01*
X011018Y002256D01*
X010977Y002201D01*
X010932Y002147D01*
X010885Y002096D01*
X010835Y002048D01*
X010783Y002003D01*
X010727Y001961D01*
X010670Y001922D01*
X010611Y001886D01*
X010550Y001853D01*
X010487Y001824D01*
X010422Y001799D01*
X010356Y001777D01*
X010289Y001758D01*
X010221Y001744D01*
X010153Y001733D01*
X010084Y001726D01*
X010015Y001723D01*
X009945Y001724D01*
X009876Y001729D01*
X009807Y001737D01*
X009739Y001749D01*
X009671Y001765D01*
X009605Y001785D01*
X009539Y001809D01*
X009476Y001836D01*
X009413Y001866D01*
X009353Y001900D01*
X009294Y001937D01*
X009238Y001978D01*
X009184Y002021D01*
X009132Y002068D01*
X009083Y002117D01*
X009037Y002169D01*
X008994Y002223D01*
D18*
X010588Y005094D02*
X010638Y005094D01*
X010637Y005093D02*
X010640Y005078D01*
X010645Y005064D01*
X010654Y005051D01*
X010665Y005040D01*
X010678Y005031D01*
X010692Y005026D01*
X010707Y005023D01*
X010708Y004974D01*
X010707Y004973D01*
X010686Y004976D01*
X010667Y004982D01*
X010648Y004991D01*
X010631Y005003D01*
X010617Y005017D01*
X010605Y005034D01*
X010596Y005053D01*
X010590Y005072D01*
X010587Y005093D01*
X010596Y005093D01*
X010599Y005074D01*
X010604Y005056D01*
X010612Y005039D01*
X010623Y005023D01*
X010637Y005009D01*
X010653Y004998D01*
X010670Y004990D01*
X010688Y004985D01*
X010707Y004982D01*
X010707Y004991D01*
X010687Y004994D01*
X010669Y005000D01*
X010652Y005010D01*
X010636Y005022D01*
X010624Y005038D01*
X010614Y005055D01*
X010608Y005073D01*
X010605Y005093D01*
X010614Y005093D01*
X010617Y005075D01*
X010622Y005058D01*
X010631Y005043D01*
X010643Y005029D01*
X010657Y005017D01*
X010672Y005008D01*
X010689Y005003D01*
X010707Y005000D01*
X010707Y005009D01*
X010689Y005012D01*
X010671Y005019D01*
X010656Y005029D01*
X010643Y005042D01*
X010633Y005057D01*
X010626Y005075D01*
X010623Y005093D01*
X010632Y005093D01*
X010635Y005077D01*
X010641Y005061D01*
X010650Y005048D01*
X010662Y005036D01*
X010675Y005027D01*
X010691Y005021D01*
X010707Y005018D01*
X011416Y004974D02*
X011416Y005024D01*
X011417Y005023D02*
X011432Y005026D01*
X011446Y005031D01*
X011459Y005040D01*
X011470Y005051D01*
X011479Y005064D01*
X011484Y005078D01*
X011487Y005093D01*
X011536Y005094D01*
X011537Y005093D01*
X011534Y005072D01*
X011528Y005053D01*
X011519Y005034D01*
X011507Y005017D01*
X011493Y005003D01*
X011476Y004991D01*
X011457Y004982D01*
X011438Y004976D01*
X011417Y004973D01*
X011417Y004982D01*
X011436Y004985D01*
X011454Y004990D01*
X011471Y004998D01*
X011487Y005009D01*
X011501Y005023D01*
X011512Y005039D01*
X011520Y005056D01*
X011525Y005074D01*
X011528Y005093D01*
X011519Y005093D01*
X011516Y005073D01*
X011510Y005055D01*
X011500Y005038D01*
X011488Y005022D01*
X011472Y005010D01*
X011455Y005000D01*
X011437Y004994D01*
X011417Y004991D01*
X011417Y005000D01*
X011435Y005003D01*
X011452Y005008D01*
X011467Y005017D01*
X011481Y005029D01*
X011493Y005043D01*
X011502Y005058D01*
X011507Y005075D01*
X011510Y005093D01*
X011501Y005093D01*
X011498Y005075D01*
X011491Y005057D01*
X011481Y005042D01*
X011468Y005029D01*
X011453Y005019D01*
X011435Y005012D01*
X011417Y005009D01*
X011417Y005018D01*
X011433Y005021D01*
X011449Y005027D01*
X011462Y005036D01*
X011474Y005048D01*
X011483Y005061D01*
X011489Y005077D01*
X011492Y005093D01*
X011536Y007402D02*
X011486Y007402D01*
X011487Y007403D02*
X011484Y007418D01*
X011479Y007432D01*
X011470Y007445D01*
X011459Y007456D01*
X011446Y007465D01*
X011432Y007470D01*
X011417Y007473D01*
X011416Y007522D01*
X011417Y007523D01*
X011438Y007520D01*
X011457Y007514D01*
X011476Y007505D01*
X011493Y007493D01*
X011507Y007479D01*
X011519Y007462D01*
X011528Y007443D01*
X011534Y007424D01*
X011537Y007403D01*
X011528Y007403D01*
X011525Y007422D01*
X011520Y007440D01*
X011512Y007457D01*
X011501Y007473D01*
X011487Y007487D01*
X011471Y007498D01*
X011454Y007506D01*
X011436Y007511D01*
X011417Y007514D01*
X011417Y007505D01*
X011437Y007502D01*
X011455Y007496D01*
X011472Y007486D01*
X011488Y007474D01*
X011500Y007458D01*
X011510Y007441D01*
X011516Y007423D01*
X011519Y007403D01*
X011510Y007403D01*
X011507Y007421D01*
X011502Y007438D01*
X011493Y007453D01*
X011481Y007467D01*
X011467Y007479D01*
X011452Y007488D01*
X011435Y007493D01*
X011417Y007496D01*
X011417Y007487D01*
X011435Y007484D01*
X011453Y007477D01*
X011468Y007467D01*
X011481Y007454D01*
X011491Y007439D01*
X011498Y007421D01*
X011501Y007403D01*
X011492Y007403D01*
X011489Y007419D01*
X011483Y007435D01*
X011474Y007448D01*
X011462Y007460D01*
X011449Y007469D01*
X011433Y007475D01*
X011417Y007478D01*
X010708Y007522D02*
X010708Y007472D01*
X010707Y007473D02*
X010692Y007470D01*
X010678Y007465D01*
X010665Y007456D01*
X010654Y007445D01*
X010645Y007432D01*
X010640Y007418D01*
X010637Y007403D01*
X010588Y007402D01*
X010587Y007403D01*
X010590Y007424D01*
X010596Y007443D01*
X010605Y007462D01*
X010617Y007479D01*
X010631Y007493D01*
X010648Y007505D01*
X010667Y007514D01*
X010686Y007520D01*
X010707Y007523D01*
X010707Y007514D01*
X010688Y007511D01*
X010670Y007506D01*
X010653Y007498D01*
X010637Y007487D01*
X010623Y007473D01*
X010612Y007457D01*
X010604Y007440D01*
X010599Y007422D01*
X010596Y007403D01*
X010605Y007403D01*
X010608Y007423D01*
X010614Y007441D01*
X010624Y007458D01*
X010636Y007474D01*
X010652Y007486D01*
X010669Y007496D01*
X010687Y007502D01*
X010707Y007505D01*
X010707Y007496D01*
X010689Y007493D01*
X010672Y007488D01*
X010657Y007479D01*
X010643Y007467D01*
X010631Y007453D01*
X010622Y007438D01*
X010617Y007421D01*
X010614Y007403D01*
X010623Y007403D01*
X010626Y007421D01*
X010633Y007439D01*
X010643Y007454D01*
X010656Y007467D01*
X010671Y007477D01*
X010689Y007484D01*
X010707Y007487D01*
X010707Y007478D01*
X010691Y007475D01*
X010675Y007469D01*
X010662Y007460D01*
X010650Y007448D01*
X010641Y007435D01*
X010635Y007419D01*
X010632Y007403D01*
X004449Y004219D02*
X004449Y004194D01*
X004424Y004169D01*
X004449Y004144D01*
X004449Y004119D01*
X004424Y004094D01*
X004374Y004094D01*
X004349Y004119D01*
X004302Y004169D02*
X004277Y004144D01*
X004202Y004144D01*
X004202Y004094D02*
X004202Y004244D01*
X004277Y004244D01*
X004302Y004219D01*
X004302Y004169D01*
X004349Y004219D02*
X004374Y004244D01*
X004424Y004244D01*
X004449Y004219D01*
X004424Y004169D02*
X004399Y004169D01*
X004155Y004244D02*
X004105Y004244D01*
X004130Y004244D02*
X004130Y004119D01*
X004105Y004094D01*
X004080Y004094D01*
X004055Y004119D01*
D19*
X000932Y004518D03*
X000932Y001678D03*
M02*
