%
M48
M72
T01C0.0320
T02C0.0400
%
T01
X4253Y3468
X4253Y4468
X4253Y5468
X4253Y6468
X4253Y7468
X4253Y8468
X4253Y9468
X7253Y9468
X7253Y8468
X7253Y7468
X7253Y6468
X7253Y5468
X7253Y4468
X7253Y3468
T02
X2703Y3468
X2803Y4468
X2703Y5468
X2803Y6468
X4658Y2054
X5658Y1954
X6658Y2054
X8703Y3468
X8803Y4468
X8703Y5468
X8803Y6468
M30
