G75*
G70*
%OFA0B0*%
%FSLAX24Y24*%
%IPPOS*%
%LPD*%
%AMOC8*
5,1,8,0,0,1.08239X$1,22.5*
%
%ADD10C,0.0520*%
%ADD11R,0.0740X0.0740*%
%ADD12C,0.0740*%
%ADD13OC8,0.0520*%
%ADD14R,0.0800X0.0800*%
%ADD15C,0.0800*%
%ADD16C,0.0160*%
%ADD17R,0.1000X0.1000*%
D10*
X004197Y005423D02*
X004717Y005423D01*
X004717Y006423D02*
X004197Y006423D01*
X004197Y007423D02*
X004717Y007423D01*
X004717Y008423D02*
X004197Y008423D01*
X004197Y009423D02*
X004717Y009423D01*
X004717Y010423D02*
X004197Y010423D01*
X004197Y011423D02*
X004717Y011423D01*
X007197Y011423D02*
X007717Y011423D01*
X007717Y010423D02*
X007197Y010423D01*
X007197Y009423D02*
X007717Y009423D01*
X007717Y008423D02*
X007197Y008423D01*
X007197Y007423D02*
X007717Y007423D01*
X007717Y006423D02*
X007197Y006423D01*
X007197Y005423D02*
X007717Y005423D01*
D11*
X002907Y005423D03*
X008907Y005423D03*
D12*
X009007Y006423D03*
X008907Y007423D03*
X009007Y008423D03*
X003007Y008423D03*
X002907Y007423D03*
X003007Y006423D03*
D13*
X009494Y002973D03*
X010494Y002973D03*
X011062Y004748D03*
X011062Y007748D03*
D14*
X004480Y003089D03*
D15*
X005928Y003089D03*
X007376Y003089D03*
D16*
X006297Y003089D02*
X008152Y004943D01*
X008152Y006061D01*
X008515Y006423D01*
X009007Y006423D01*
X008907Y007423D02*
X007907Y006423D01*
X007457Y006423D01*
X007457Y005423D01*
X006297Y003089D02*
X005928Y003089D01*
X004480Y003089D02*
X004457Y003089D01*
X004457Y005423D01*
X005385Y005423D01*
X005385Y008423D01*
X004457Y008423D01*
X005385Y008423D02*
X005385Y010424D01*
X007457Y010424D01*
X007457Y010423D01*
X007457Y008423D02*
X009007Y008423D01*
X011062Y008423D01*
X011062Y007748D01*
X011062Y004748D02*
X011062Y002973D01*
X010494Y002973D01*
X004457Y005423D02*
X002907Y005423D01*
D17*
X004451Y012627D03*
X004458Y013926D03*
X007466Y013919D03*
X007459Y012620D03*
M02*
