G75*
G70*
%OFA0B0*%
%FSLAX24Y24*%
%IPPOS*%
%LPD*%
%AMOC8*
5,1,8,0,0,1.08239X$1,22.5*
%
%ADD10C,0.0060*%
%ADD11C,0.0050*%
%ADD12C,0.0030*%
%ADD13C,0.0020*%
%ADD14C,0.0080*%
%ADD15C,0.0059*%
D10*
X004603Y002968D02*
X006903Y002968D01*
X006903Y009968D01*
X006153Y009968D01*
X006151Y009929D01*
X006145Y009890D01*
X006136Y009852D01*
X006123Y009815D01*
X006106Y009779D01*
X006086Y009746D01*
X006062Y009714D01*
X006036Y009685D01*
X006007Y009659D01*
X005975Y009635D01*
X005942Y009615D01*
X005906Y009598D01*
X005869Y009585D01*
X005831Y009576D01*
X005792Y009570D01*
X005753Y009568D01*
X005714Y009570D01*
X005675Y009576D01*
X005637Y009585D01*
X005600Y009598D01*
X005564Y009615D01*
X005531Y009635D01*
X005499Y009659D01*
X005470Y009685D01*
X005444Y009714D01*
X005420Y009746D01*
X005400Y009779D01*
X005383Y009815D01*
X005370Y009852D01*
X005361Y009890D01*
X005355Y009929D01*
X005353Y009968D01*
X004603Y009968D01*
X004603Y002968D01*
X005710Y004884D02*
X005497Y005097D01*
X005710Y005311D01*
X006137Y005311D01*
X006137Y005528D02*
X006137Y005848D01*
X006030Y005955D01*
X005603Y005955D01*
X005497Y005848D01*
X005497Y005528D01*
X006137Y005528D01*
X005817Y005311D02*
X005817Y004884D01*
X005710Y004884D02*
X006137Y004884D01*
X006030Y006173D02*
X006137Y006279D01*
X006137Y006493D01*
X006030Y006600D01*
X005817Y006600D01*
X005710Y006493D01*
X005710Y006386D01*
X005817Y006173D01*
X005497Y006173D01*
X005497Y006600D01*
X005603Y006817D02*
X005497Y006924D01*
X005497Y007137D01*
X005603Y007244D01*
X006030Y007244D01*
X006137Y007137D01*
X006137Y006924D01*
X006030Y006817D01*
X005817Y006924D02*
X005817Y007244D01*
X005817Y007462D02*
X005710Y007675D01*
X005710Y007782D01*
X005817Y007889D01*
X006030Y007889D01*
X006137Y007782D01*
X006137Y007568D01*
X006030Y007462D01*
X005817Y007462D02*
X005497Y007462D01*
X005497Y007889D01*
X005817Y006924D02*
X005710Y006817D01*
X005603Y006817D01*
X008054Y009478D02*
X008267Y009691D01*
X008694Y009691D01*
X008694Y009909D02*
X008694Y010122D01*
X008694Y010016D02*
X008054Y010016D01*
X008054Y009909D01*
X008374Y009691D02*
X008374Y009264D01*
X008267Y009264D02*
X008054Y009478D01*
X008267Y009264D02*
X008694Y009264D01*
X008587Y010339D02*
X008267Y010339D01*
X008587Y010339D02*
X008694Y010445D01*
X008694Y010766D01*
X008267Y010766D01*
X008267Y010983D02*
X008267Y011090D01*
X008374Y011197D01*
X008267Y011303D01*
X008374Y011410D01*
X008694Y011410D01*
X008694Y011197D02*
X008374Y011197D01*
X008267Y010983D02*
X008694Y010983D01*
X008587Y011628D02*
X008374Y011628D01*
X008267Y011734D01*
X008267Y011948D01*
X008374Y012055D01*
X008481Y012055D01*
X008481Y011628D01*
X008587Y011628D02*
X008694Y011734D01*
X008694Y011948D01*
X008694Y012272D02*
X008694Y012486D01*
X008694Y012379D02*
X008054Y012379D01*
X008054Y012272D01*
D11*
X003363Y012197D02*
X003363Y011993D01*
X003261Y011892D01*
X003058Y011892D01*
X002956Y011993D01*
X002956Y012197D01*
X003058Y012299D01*
X003160Y012299D01*
X003160Y011892D01*
X003058Y011691D02*
X003363Y011691D01*
X003363Y011488D02*
X003058Y011488D01*
X002956Y011589D01*
X003058Y011691D01*
X003058Y011488D02*
X002956Y011386D01*
X002956Y011284D01*
X003363Y011284D01*
X003261Y011083D02*
X003058Y011083D01*
X002956Y010982D01*
X002956Y010778D01*
X003058Y010676D01*
X003261Y010676D01*
X003363Y010778D01*
X003363Y010982D01*
X003261Y011083D01*
X002956Y010475D02*
X002956Y010373D01*
X003160Y010170D01*
X003363Y010170D02*
X002956Y010170D01*
X003058Y009969D02*
X003363Y009969D01*
X003058Y009969D02*
X002956Y009867D01*
X002956Y009664D01*
X003058Y009562D01*
X003261Y009361D02*
X003363Y009260D01*
X003363Y009056D01*
X003261Y008954D01*
X002854Y008954D01*
X002753Y009056D01*
X002753Y009260D01*
X002854Y009361D01*
X002753Y009562D02*
X003363Y009562D01*
X003363Y012499D02*
X003363Y012703D01*
X003363Y012601D02*
X002753Y012601D01*
X002753Y012499D01*
D12*
X001424Y003293D02*
X001328Y003293D01*
X001279Y003341D01*
X001279Y003534D01*
X001328Y003583D01*
X001424Y003583D01*
X001473Y003534D01*
X001473Y003438D02*
X001376Y003438D01*
X001473Y003438D02*
X001473Y003341D01*
X001424Y003293D01*
X001574Y003293D02*
X001574Y003583D01*
X001767Y003293D01*
X001767Y003583D01*
X001869Y003583D02*
X002014Y003583D01*
X002062Y003534D01*
X002062Y003341D01*
X002014Y003293D01*
X001869Y003293D01*
X001869Y003583D01*
X000826Y003899D02*
X000632Y003899D01*
X000536Y003995D01*
X000632Y004092D01*
X000826Y004092D01*
X000826Y004193D02*
X000826Y004338D01*
X000777Y004387D01*
X000584Y004387D01*
X000536Y004338D01*
X000536Y004193D01*
X000826Y004193D01*
X000681Y004092D02*
X000681Y003899D01*
X000681Y004488D02*
X000681Y004681D01*
X000632Y004681D02*
X000826Y004681D01*
X000777Y004782D02*
X000826Y004831D01*
X000826Y004928D01*
X000777Y004976D01*
X000681Y004976D01*
X000632Y004928D01*
X000632Y004879D01*
X000681Y004782D01*
X000536Y004782D01*
X000536Y004976D01*
X000584Y005077D02*
X000536Y005125D01*
X000536Y005222D01*
X000584Y005271D01*
X000777Y005271D01*
X000826Y005222D01*
X000826Y005125D01*
X000777Y005077D01*
X000681Y005125D02*
X000681Y005271D01*
X000681Y005372D02*
X000632Y005469D01*
X000632Y005517D01*
X000681Y005565D01*
X000777Y005565D01*
X000826Y005517D01*
X000826Y005420D01*
X000777Y005372D01*
X000681Y005372D02*
X000536Y005372D01*
X000536Y005565D01*
X000681Y005125D02*
X000632Y005077D01*
X000584Y005077D01*
X000632Y004681D02*
X000536Y004585D01*
X000632Y004488D01*
X000826Y004488D01*
X000536Y005961D02*
X000536Y006155D01*
X000536Y006058D02*
X000826Y006058D01*
X000826Y006256D02*
X000536Y006256D01*
X000632Y006304D02*
X000632Y006401D01*
X000681Y006449D01*
X000826Y006449D01*
X000777Y006550D02*
X000681Y006550D01*
X000632Y006599D01*
X000632Y006695D01*
X000681Y006744D01*
X000729Y006744D01*
X000729Y006550D01*
X000777Y006550D02*
X000826Y006599D01*
X000826Y006695D01*
X000826Y006845D02*
X000632Y006845D01*
X000632Y006942D02*
X000632Y006990D01*
X000632Y006942D02*
X000729Y006845D01*
X000632Y007091D02*
X000632Y007139D01*
X000681Y007187D01*
X000632Y007236D01*
X000681Y007284D01*
X000826Y007284D01*
X000826Y007187D02*
X000681Y007187D01*
X000632Y007091D02*
X000826Y007091D01*
X000777Y007385D02*
X000681Y007385D01*
X000632Y007434D01*
X000632Y007530D01*
X000681Y007579D01*
X000777Y007579D01*
X000826Y007530D01*
X000826Y007434D01*
X000777Y007385D01*
X000777Y007680D02*
X000681Y007680D01*
X000632Y007728D01*
X000632Y007873D01*
X000681Y007974D02*
X000777Y007974D01*
X000826Y008023D01*
X000826Y008120D01*
X000777Y008168D01*
X000681Y008168D01*
X000632Y008120D01*
X000632Y008023D01*
X000681Y007974D01*
X000826Y007728D02*
X000777Y007680D01*
X000826Y007728D02*
X000826Y007873D01*
X000777Y008269D02*
X000632Y008269D01*
X000777Y008269D02*
X000826Y008317D01*
X000826Y008463D01*
X000632Y008463D01*
X000632Y008564D02*
X000632Y008709D01*
X000681Y008757D01*
X000777Y008757D01*
X000826Y008709D01*
X000826Y008564D01*
X000923Y008564D02*
X000632Y008564D01*
X000536Y008858D02*
X000536Y008907D01*
X000826Y008907D01*
X000826Y008955D02*
X000826Y008858D01*
X000777Y009055D02*
X000681Y009055D01*
X000632Y009103D01*
X000632Y009200D01*
X000681Y009248D01*
X000729Y009248D01*
X000729Y009055D01*
X000777Y009055D02*
X000826Y009103D01*
X000826Y009200D01*
X000826Y009644D02*
X000536Y009644D01*
X000536Y009789D01*
X000584Y009838D01*
X000632Y009838D01*
X000681Y009789D01*
X000681Y009644D01*
X000681Y009789D02*
X000729Y009838D01*
X000777Y009838D01*
X000826Y009789D01*
X000826Y009644D01*
X000826Y009939D02*
X000632Y009939D01*
X000632Y010035D02*
X000632Y010084D01*
X000632Y010035D02*
X000729Y009939D01*
X000729Y010184D02*
X000729Y010378D01*
X000681Y010378D01*
X000632Y010329D01*
X000632Y010233D01*
X000681Y010184D01*
X000777Y010184D01*
X000826Y010233D01*
X000826Y010329D01*
X000777Y010479D02*
X000729Y010527D01*
X000729Y010672D01*
X000681Y010672D02*
X000826Y010672D01*
X000826Y010527D01*
X000777Y010479D01*
X000632Y010527D02*
X000632Y010624D01*
X000681Y010672D01*
X000729Y010774D02*
X000632Y010919D01*
X000681Y011019D02*
X000777Y011019D01*
X000826Y011067D01*
X000826Y011164D01*
X000777Y011213D01*
X000681Y011213D01*
X000632Y011164D01*
X000632Y011067D01*
X000681Y011019D01*
X000826Y010919D02*
X000729Y010774D01*
X000826Y010774D02*
X000536Y010774D01*
X000632Y011314D02*
X000777Y011314D01*
X000826Y011362D01*
X000826Y011507D01*
X000632Y011507D01*
X000632Y011608D02*
X000632Y011705D01*
X000584Y011657D02*
X000777Y011657D01*
X000826Y011705D01*
X001066Y011510D02*
X001066Y011365D01*
X001356Y011365D01*
X001259Y011365D02*
X001259Y011510D01*
X001211Y011559D01*
X001114Y011559D01*
X001066Y011510D01*
X001259Y011462D02*
X001356Y011559D01*
X001307Y011660D02*
X001211Y011660D01*
X001162Y011708D01*
X001162Y011805D01*
X001211Y011853D01*
X001259Y011853D01*
X001259Y011660D01*
X001307Y011660D02*
X001356Y011708D01*
X001356Y011805D01*
X001162Y011954D02*
X001356Y012051D01*
X001162Y012148D01*
X000826Y012099D02*
X000826Y012245D01*
X000777Y012293D01*
X000729Y012293D01*
X000681Y012245D01*
X000681Y012099D01*
X000826Y012099D02*
X000536Y012099D01*
X000536Y012245D01*
X000584Y012293D01*
X000632Y012293D01*
X000681Y012245D01*
X000681Y012394D02*
X000777Y012394D01*
X000826Y012442D01*
X000826Y012539D01*
X000777Y012588D01*
X000681Y012588D01*
X000632Y012539D01*
X000632Y012442D01*
X000681Y012394D01*
X000777Y012689D02*
X000729Y012737D01*
X000729Y012882D01*
X000681Y012882D02*
X000826Y012882D01*
X000826Y012737D01*
X000777Y012689D01*
X000632Y012737D02*
X000632Y012834D01*
X000681Y012882D01*
X000729Y012983D02*
X000632Y013080D01*
X000632Y013128D01*
X000681Y013229D02*
X000632Y013277D01*
X000632Y013422D01*
X000536Y013422D02*
X000826Y013422D01*
X000826Y013277D01*
X000777Y013229D01*
X000681Y013229D01*
X000632Y012983D02*
X000826Y012983D01*
X001066Y012640D02*
X001356Y012640D01*
X001356Y012544D02*
X001356Y012737D01*
X001162Y012544D02*
X001066Y012640D01*
X004182Y013045D02*
X004230Y012996D01*
X004327Y012996D01*
X004375Y013045D01*
X004476Y013045D02*
X004476Y013238D01*
X004525Y013287D01*
X004621Y013287D01*
X004670Y013238D01*
X004670Y013045D02*
X004621Y012996D01*
X004525Y012996D01*
X004476Y013045D01*
X004375Y013238D02*
X004327Y013287D01*
X004230Y013287D01*
X004182Y013238D01*
X004182Y013045D01*
X005065Y012996D02*
X005211Y012996D01*
X005259Y013045D01*
X005259Y013093D01*
X005211Y013141D01*
X005065Y013141D01*
X005065Y012996D02*
X005065Y013287D01*
X005211Y013287D01*
X005259Y013238D01*
X005259Y013190D01*
X005211Y013141D01*
X005360Y013238D02*
X005457Y013141D01*
X005457Y012996D01*
X005457Y013141D02*
X005554Y013238D01*
X005554Y013287D01*
X005655Y013141D02*
X005848Y013141D01*
X005949Y013190D02*
X005998Y013141D01*
X006095Y013141D01*
X006143Y013093D01*
X006143Y013045D01*
X006095Y012996D01*
X005998Y012996D01*
X005949Y013045D01*
X005949Y013190D02*
X005949Y013238D01*
X005998Y013287D01*
X006095Y013287D01*
X006143Y013238D01*
X006244Y013190D02*
X006244Y012996D01*
X006244Y013141D02*
X006438Y013141D01*
X006438Y013190D02*
X006438Y012996D01*
X006438Y013190D02*
X006341Y013287D01*
X006244Y013190D01*
X006833Y013238D02*
X006882Y013287D01*
X006978Y013287D01*
X007027Y013238D01*
X007027Y013190D01*
X006978Y013141D01*
X007027Y013093D01*
X007027Y013045D01*
X006978Y012996D01*
X006882Y012996D01*
X006833Y013045D01*
X006930Y013141D02*
X006978Y013141D01*
X007128Y013045D02*
X007176Y013045D01*
X007176Y012996D01*
X007128Y012996D01*
X007128Y013045D01*
X007275Y013045D02*
X007275Y013238D01*
X007324Y013287D01*
X007420Y013287D01*
X007469Y013238D01*
X007275Y013045D01*
X007324Y012996D01*
X007420Y012996D01*
X007469Y013045D01*
X007469Y013238D01*
X005360Y013287D02*
X005360Y013238D01*
X009729Y006659D02*
X009729Y006514D01*
X009825Y006562D01*
X009874Y006562D01*
X009922Y006514D01*
X009922Y006417D01*
X009874Y006369D01*
X009777Y006369D01*
X009729Y006417D01*
X009627Y006514D02*
X009434Y006514D01*
X009531Y006611D02*
X009531Y006417D01*
X009729Y006659D02*
X009922Y006659D01*
X010645Y007214D02*
X010645Y007359D01*
X010694Y007408D01*
X010887Y007408D01*
X010936Y007359D01*
X010936Y007214D01*
X010645Y007214D01*
X010790Y007509D02*
X010742Y007557D01*
X010742Y007654D01*
X010790Y007702D01*
X010839Y007702D01*
X010839Y007509D01*
X010887Y007509D02*
X010790Y007509D01*
X010887Y007509D02*
X010936Y007557D01*
X010936Y007654D01*
X010936Y007803D02*
X010936Y007948D01*
X010887Y007997D01*
X010839Y007948D01*
X010839Y007852D01*
X010790Y007803D01*
X010742Y007852D01*
X010742Y007997D01*
X010742Y008098D02*
X010742Y008146D01*
X010936Y008146D01*
X010936Y008098D02*
X010936Y008195D01*
X010887Y008294D02*
X010936Y008343D01*
X010936Y008488D01*
X010984Y008488D02*
X010742Y008488D01*
X010742Y008343D01*
X010790Y008294D01*
X010887Y008294D01*
X011032Y008391D02*
X011032Y008440D01*
X010984Y008488D01*
X010936Y008589D02*
X010742Y008589D01*
X010742Y008734D01*
X010790Y008783D01*
X010936Y008783D01*
X010645Y009178D02*
X010645Y009372D01*
X010645Y009275D02*
X010936Y009275D01*
X010887Y009473D02*
X010790Y009473D01*
X010742Y009521D01*
X010742Y009618D01*
X010790Y009666D01*
X010839Y009666D01*
X010839Y009473D01*
X010887Y009473D02*
X010936Y009521D01*
X010936Y009618D01*
X010887Y009768D02*
X010936Y009816D01*
X010936Y009961D01*
X010936Y010062D02*
X010645Y010062D01*
X010742Y010111D02*
X010742Y010207D01*
X010790Y010256D01*
X010936Y010256D01*
X010790Y010062D02*
X010742Y010111D01*
X010742Y009961D02*
X010742Y009816D01*
X010790Y009768D01*
X010887Y009768D01*
X010936Y010652D02*
X010936Y010748D01*
X010936Y010700D02*
X010645Y010700D01*
X010645Y010652D02*
X010645Y010748D01*
X010742Y010848D02*
X010742Y010993D01*
X010790Y011041D01*
X010936Y011041D01*
X010887Y011143D02*
X010790Y011143D01*
X010742Y011191D01*
X010742Y011336D01*
X010645Y011336D02*
X010936Y011336D01*
X010936Y011191D01*
X010887Y011143D01*
X010887Y011437D02*
X010742Y011437D01*
X010887Y011437D02*
X010936Y011486D01*
X010936Y011631D01*
X010742Y011631D01*
X010790Y011732D02*
X010742Y011780D01*
X010742Y011925D01*
X010742Y012027D02*
X010742Y012123D01*
X010694Y012075D02*
X010887Y012075D01*
X010936Y012123D01*
X010936Y012223D02*
X010742Y012223D01*
X010742Y012320D02*
X010742Y012368D01*
X010742Y012320D02*
X010839Y012223D01*
X010936Y012469D02*
X010936Y012565D01*
X010936Y012517D02*
X010742Y012517D01*
X010742Y012469D01*
X010645Y012517D02*
X010597Y012517D01*
X010790Y012665D02*
X010742Y012713D01*
X010742Y012810D01*
X010790Y012858D01*
X010839Y012858D01*
X010839Y012665D01*
X010887Y012665D02*
X010790Y012665D01*
X010887Y012665D02*
X010936Y012713D01*
X010936Y012810D01*
X010936Y012960D02*
X010936Y013105D01*
X010887Y013153D01*
X010839Y013105D01*
X010839Y013008D01*
X010790Y012960D01*
X010742Y013008D01*
X010742Y013153D01*
X010887Y011925D02*
X010839Y011877D01*
X010839Y011780D01*
X010790Y011732D01*
X010936Y011732D02*
X010936Y011877D01*
X010887Y011925D01*
X010936Y010848D02*
X010742Y010848D01*
X010645Y008146D02*
X010597Y008146D01*
X006899Y001376D02*
X006706Y001376D01*
X006706Y001231D01*
X006802Y001279D01*
X006851Y001279D01*
X006899Y001231D01*
X006899Y001134D01*
X006851Y001085D01*
X006754Y001085D01*
X006706Y001134D01*
X006604Y001231D02*
X006411Y001231D01*
X006508Y001327D02*
X006508Y001134D01*
X006245Y001085D02*
X006051Y001085D01*
X006051Y001376D01*
X005950Y001327D02*
X005950Y001231D01*
X005902Y001182D01*
X005756Y001182D01*
X005756Y001085D02*
X005756Y001376D01*
X005902Y001376D01*
X005950Y001327D01*
X005853Y001182D02*
X005950Y001085D01*
X005655Y001376D02*
X005462Y001376D01*
X005559Y001376D02*
X005559Y001085D01*
X005361Y001134D02*
X005312Y001085D01*
X005215Y001085D01*
X005167Y001134D01*
X005167Y001327D01*
X005215Y001376D01*
X005312Y001376D01*
X005361Y001327D01*
X004880Y001298D02*
X004880Y001105D01*
X004831Y001056D01*
X004686Y001056D01*
X004686Y001347D01*
X004831Y001347D01*
X004880Y001298D01*
X004585Y001347D02*
X004585Y001056D01*
X004392Y001347D01*
X004392Y001056D01*
X004290Y001105D02*
X004290Y001201D01*
X004194Y001201D01*
X004290Y001105D02*
X004242Y001056D01*
X004145Y001056D01*
X004097Y001105D01*
X004097Y001298D01*
X004145Y001347D01*
X004242Y001347D01*
X004290Y001298D01*
X000681Y006256D02*
X000632Y006304D01*
D13*
X009368Y005623D02*
X009368Y005550D01*
X009405Y005513D01*
X009552Y005513D01*
X009405Y005660D01*
X009552Y005660D01*
X009589Y005623D01*
X009589Y005550D01*
X009552Y005513D01*
X009589Y005439D02*
X009589Y005292D01*
X009589Y005366D02*
X009368Y005366D01*
X009442Y005292D01*
X009368Y005623D02*
X009405Y005660D01*
X009775Y005619D02*
X009995Y005472D01*
X009922Y005398D02*
X009775Y005398D01*
X009922Y005398D02*
X009995Y005324D01*
X009922Y005251D01*
X009775Y005251D01*
X009848Y005140D02*
X009885Y005177D01*
X009995Y005177D01*
X009995Y005103D02*
X009885Y005103D01*
X009848Y005140D01*
X009885Y005103D02*
X009848Y005067D01*
X009848Y005030D01*
X009995Y005030D01*
X009848Y005693D02*
X009812Y005693D01*
X009775Y005729D01*
X009775Y005766D01*
X009812Y005803D01*
X009848Y005803D01*
X009885Y005766D01*
X009885Y005729D01*
X009848Y005693D01*
X009812Y005877D02*
X009958Y005877D01*
X009995Y005914D01*
X009995Y005987D01*
X009958Y006024D01*
X009812Y006024D02*
X009775Y005987D01*
X009775Y005914D01*
X009812Y005877D01*
D14*
X009253Y005718D02*
X009253Y005218D01*
X009003Y004968D01*
X009253Y004718D01*
X009253Y004218D01*
X009003Y003968D01*
X009253Y003718D01*
X009253Y003218D01*
X009003Y002968D01*
X008503Y002968D01*
X008253Y003218D01*
X008253Y003718D01*
X008503Y003968D01*
X008253Y004218D01*
X008253Y004718D01*
X008503Y004968D01*
X008253Y005218D01*
X008253Y005718D01*
X008503Y005968D01*
X008253Y006218D01*
X008253Y006718D01*
X008503Y006968D01*
X009003Y006968D01*
X009253Y006718D01*
X009253Y006218D01*
X009003Y005968D01*
X009253Y005718D01*
X006908Y002504D02*
X007158Y002254D01*
X007158Y001754D01*
X006908Y001504D01*
X006408Y001504D01*
X006158Y001754D01*
X005908Y001504D01*
X005408Y001504D01*
X005158Y001754D01*
X004908Y001504D01*
X004408Y001504D01*
X004158Y001754D01*
X004158Y002254D01*
X004408Y002504D01*
X004908Y002504D01*
X005158Y002254D01*
X005408Y002504D01*
X005908Y002504D01*
X006158Y002254D01*
X006408Y002504D01*
X006908Y002504D01*
X003253Y003218D02*
X003253Y003718D01*
X003003Y003968D01*
X003253Y004218D01*
X003253Y004718D01*
X003003Y004968D01*
X003253Y005218D01*
X003253Y005718D01*
X003003Y005968D01*
X003253Y006218D01*
X003253Y006718D01*
X003003Y006968D01*
X002503Y006968D01*
X002253Y006718D01*
X002253Y006218D01*
X002503Y005968D01*
X002253Y005718D01*
X002253Y005218D01*
X002503Y004968D01*
X002253Y004718D01*
X002253Y004218D01*
X002503Y003968D01*
X002253Y003718D01*
X002253Y003218D01*
X002503Y002968D01*
X003003Y002968D01*
X003253Y003218D01*
D15*
X005463Y013479D02*
X005612Y013600D01*
X005671Y013570D01*
X005756Y013774D01*
X005460Y013774D01*
X005452Y013789D02*
X005483Y013730D01*
X005362Y013581D01*
X005463Y013479D01*
X005456Y013486D02*
X005472Y013486D01*
X005542Y013544D02*
X005399Y013544D01*
X005378Y013601D02*
X005685Y013601D01*
X005709Y013659D02*
X005425Y013659D01*
X005472Y013717D02*
X005732Y013717D01*
X005756Y013774D02*
X005718Y013795D01*
X005687Y013825D01*
X005662Y013861D01*
X005647Y013902D01*
X005642Y013945D01*
X005648Y013989D01*
X005663Y014030D01*
X005688Y014066D01*
X005721Y014096D01*
X005760Y014117D01*
X005803Y014128D01*
X005847Y014128D01*
X005890Y014118D01*
X005929Y014098D01*
X005963Y014069D01*
X005989Y014034D01*
X006005Y013993D01*
X006011Y013949D01*
X006007Y013905D01*
X005992Y013863D01*
X005968Y013826D01*
X005936Y013796D01*
X005898Y013774D01*
X006194Y013774D01*
X006202Y013789D02*
X006223Y013853D01*
X006413Y013873D01*
X006413Y014017D01*
X006223Y014036D01*
X006202Y014100D01*
X006171Y014160D01*
X006292Y014308D01*
X006190Y014410D01*
X006042Y014289D01*
X005982Y014320D01*
X005918Y014340D01*
X005899Y014531D01*
X005755Y014531D01*
X005736Y014340D01*
X005671Y014320D01*
X005612Y014289D01*
X005463Y014410D01*
X005362Y014308D01*
X005483Y014160D01*
X005452Y014100D01*
X005431Y014036D01*
X005241Y014017D01*
X005241Y013873D01*
X005431Y013853D01*
X005452Y013789D01*
X005438Y013832D02*
X005682Y013832D01*
X005652Y013889D02*
X005241Y013889D01*
X005241Y013947D02*
X005643Y013947D01*
X005654Y014005D02*
X005241Y014005D01*
X005440Y014062D02*
X005685Y014062D01*
X005772Y014120D02*
X005462Y014120D01*
X005468Y014177D02*
X006185Y014177D01*
X006192Y014120D02*
X005883Y014120D01*
X005968Y014062D02*
X006214Y014062D01*
X006232Y014235D02*
X005421Y014235D01*
X005374Y014293D02*
X005607Y014293D01*
X005619Y014293D02*
X006035Y014293D01*
X006046Y014293D02*
X006279Y014293D01*
X006250Y014350D02*
X006117Y014350D01*
X006188Y014408D02*
X006193Y014408D01*
X006000Y014005D02*
X006413Y014005D01*
X006413Y013947D02*
X006011Y013947D01*
X006002Y013889D02*
X006413Y013889D01*
X006216Y013832D02*
X005972Y013832D01*
X005898Y013774D02*
X005982Y013570D01*
X006042Y013600D01*
X006190Y013479D01*
X006292Y013581D01*
X006171Y013730D01*
X006202Y013789D01*
X006182Y013717D02*
X005921Y013717D01*
X005945Y013659D02*
X006229Y013659D01*
X006276Y013601D02*
X005969Y013601D01*
X006111Y013544D02*
X006255Y013544D01*
X006197Y013486D02*
X006182Y013486D01*
X005917Y014350D02*
X005737Y014350D01*
X005742Y014408D02*
X005911Y014408D01*
X005906Y014465D02*
X005748Y014465D01*
X005754Y014523D02*
X005900Y014523D01*
X005537Y014350D02*
X005403Y014350D01*
X005461Y014408D02*
X005466Y014408D01*
M02*
